
						<svg width="24" height="24" viewBox="0 0 24 24" fill="none" xmlns="http://www.w3.org/2000/svg">
<path d="M9.01 13.75C9.42421 13.75 9.76 13.4142 9.76 13C9.76 12.5858 9.42421 12.25 9.01 12.25V13.75ZM9 12.25C8.58579 12.25 8.25 12.5858 8.25 13C8.25 13.4142 8.58579 13.75 9 13.75V12.25ZM15.01 13.75C15.4242 13.75 15.76 13.4142 15.76 13C15.76 12.5858 15.4242 12.25 15.01 12.25V13.75ZM15 12.25C14.5858 12.25 14.25 12.5858 14.25 13C14.25 13.4142 14.5858 13.75 15 13.75V12.25ZM11 16.25C10.5858 16.25 10.25 16.5858 10.25 17C10.25 17.4142 10.5858 17.75 11 17.75V16.25ZM13 17.75C13.4142 17.75 13.75 17.4142 13.75 17C13.75 16.5858 13.4142 16.25 13 16.25V17.75ZM9.1 7.55C8.85147 7.21863 8.38137 7.15147 8.05 7.4C7.71863 7.64853 7.65147 8.11863 7.9 8.45L9.1 7.55ZM10 10L9.4 10.45C9.54164 10.6389 9.76393 10.75 10 10.75V10ZM14 10V10.75C14.2361 10.75 14.4584 10.6389 14.6 10.45L14 10ZM16.1 8.45C16.3485 8.11863 16.2814 7.64853 15.95 7.4C15.6186 7.15147 15.1485 7.21863 14.9 7.55L16.1 8.45ZM20.75 11C20.75 10.5858 20.4142 10.25 20 10.25C19.5858 10.25 19.25 10.5858 19.25 11H20.75ZM19.25 16C19.25 16.4142 19.5858 16.75 20 16.75C20.4142 16.75 20.75 16.4142 20.75 16H19.25ZM4.75 11C4.75 10.5858 4.41421 10.25 4 10.25C3.58579 10.25 3.25 10.5858 3.25 11H4.75ZM3.25 16C3.25 16.4142 3.58579 16.75 4 16.75C4.41421 16.75 4.75 16.4142 4.75 16H3.25ZM18.25 14C18.25 17.4518 15.4518 20.25 12 20.25V21.75C16.2802 21.75 19.75 18.2802 19.75 14H18.25ZM12 20.25C8.54822 20.25 5.75 17.4518 5.75 14H4.25C4.25 18.2802 7.71979 21.75 12 21.75V20.25ZM5.75 14C5.75 10.5482 8.54822 7.75 12 7.75V6.25C7.71979 6.25 4.25 9.71979 4.25 14H5.75ZM12 7.75C15.4518 7.75 18.25 10.5482 18.25 14H19.75C19.75 9.71979 16.2802 6.25 12 6.25V7.75ZM12.75 7V5H11.25V7H12.75ZM12.25 4C12.25 4.13807 12.1381 4.25 12 4.25V5.75C12.9665 5.75 13.75 4.9665 13.75 4H12.25ZM12 4.25C11.8619 4.25 11.75 4.13807 11.75 4H10.25C10.25 4.9665 11.0335 5.75 12 5.75V4.25ZM11.75 4C11.75 3.86193 11.8619 3.75 12 3.75V2.25C11.0335 2.25 10.25 3.0335 10.25 4H11.75ZM12 3.75C12.1381 3.75 12.25 3.86193 12.25 4H13.75C13.75 3.0335 12.9665 2.25 12 2.25V3.75ZM9.01 12.25H9V13.75H9.01V12.25ZM15.01 12.25H15V13.75H15.01V12.25ZM11 17.75H13V16.25H11V17.75ZM7.9 8.45L9.4 10.45L10.6 9.55L9.1 7.55L7.9 8.45ZM10 10.75H14V9.25H10V10.75ZM14.6 10.45L16.1 8.45L14.9 7.55L13.4 9.55L14.6 10.45ZM19.25 11V16H20.75V11H19.25ZM3.25 11V16H4.75V11H3.25Z" fill="#363538"></path>
</svg>
					